<svg width="96" height="96" viewBox="0 0 96 96" fill="none" xmlns="http://www.w3.org/2000/svg">
<path d="M29.9426 28.136C29.52 27.2625 29.8854 26.2118 30.759 25.7893C31.0441 25.6514 31.3477 25.5988 31.6426 25.619C31.9207 25.0007 32.409 24.473 33.0669 24.1546C34.5541 23.4351 36.3431 24.0575 37.0627 25.5447C37.2366 25.9042 37.3315 26.2813 37.3552 26.6566C38.0191 26.6345 38.6652 26.9961 38.9732 27.6325C39.3898 28.4936 39.0296 29.5292 38.1684 29.9459C37.3864 30.3242 36.4619 30.0602 35.9864 29.3638C35.8865 29.4279 35.7822 29.4873 35.6727 29.5404C34.4969 30.1092 33.133 29.8388 32.2575 28.9658C31.3905 29.3647 30.3602 28.9989 29.9426 28.136Z" fill="url(#paint0_linear_4303_3)"/>
<path d="M30.3844 24.9367C31.1953 24.9367 31.8527 24.2793 31.8527 23.4684C31.8527 22.6574 31.1953 22 30.3844 22C29.5734 22 28.916 22.6574 28.916 23.4684C28.916 24.2793 29.5734 24.9367 30.3844 24.9367Z" fill="url(#paint1_linear_4303_3)"/>
<path d="M39.1075 36.7783H35.566C35.0649 36.7783 34.6586 36.372 34.6586 35.8708V30.222C34.6586 29.7208 35.0649 29.3146 35.566 29.3146H39.1075C39.6087 29.3146 40.0149 29.7208 40.0149 30.222V35.8708C40.015 36.372 39.6088 36.7783 39.1075 36.7783Z" fill="url(#paint2_linear_4303_3)"/>
<path d="M37.9855 52.885H27.4101V66.4568H37.9855V52.885Z" fill="url(#paint3_linear_4303_3)"/>
<path d="M38.4261 55.7929H27.4338C26.9834 55.7929 26.6609 55.358 26.7916 54.9269L27.8824 51.3338C27.9683 51.051 28.229 50.8578 28.5246 50.8578H38.4262V55.7929H38.4261Z" fill="url(#paint4_linear_4303_3)"/>
<path d="M69.5355 52.885H58.9601V66.4568H69.5355V52.885Z" fill="url(#paint5_linear_4303_3)"/>
<path d="M69.5354 62.901L62.4301 55.7955H58.9601V66.4565H69.5354V62.901Z" fill="url(#paint6_linear_4303_3)"/>
<path d="M58.5194 55.7929H69.5117C69.9621 55.7929 70.2846 55.358 70.1539 54.9269L69.0631 51.3338C68.9772 51.051 68.7165 50.8578 68.4209 50.8578H58.5194V55.7929Z" fill="url(#paint7_linear_4303_3)"/>
<path d="M62.4358 38.3768V66.4562H34.5132V38.3768L48.4727 24.6904L62.4358 38.3768Z" fill="url(#paint8_linear_4303_3)"/>
<path d="M34.5132 38.3768V39.9855L60.9839 66.4562H62.4358V38.3768L48.4727 24.6904L34.5132 38.3768Z" fill="url(#paint9_linear_4303_3)"/>
<path d="M62.4358 46.863V66.4565H53.6203L34.5132 47.3494V46.863H62.4358Z" fill="url(#paint10_linear_4303_3)"/>
<path d="M58.1214 66.4564H44.4653L36.9585 58.9497C36.628 58.7354 36.4081 58.3636 36.4081 57.9419V51.9001C36.4081 51.2382 36.947 50.6993 37.6089 50.6993H41.9647C42.3874 50.6993 42.7592 50.9193 42.9734 51.2497L42.9408 51.2756L58.1214 66.4564Z" fill="url(#paint11_linear_4303_3)"/>
<path d="M41.9647 58.4388H37.6093C37.3346 58.4388 37.112 58.2162 37.112 57.9415V51.9006C37.112 51.6259 37.3347 51.4033 37.6093 51.4033H41.9647C42.2394 51.4033 42.462 51.626 42.462 51.9006V57.9415C42.4621 58.2162 42.2394 58.4388 41.9647 58.4388Z" fill="#503837"/>
<path d="M41.9647 59.1428H37.6093C36.947 59.1428 36.4081 58.6039 36.4081 57.9416V51.9007C36.4081 51.2384 36.947 50.6995 37.6093 50.6995H41.9647C42.627 50.6995 43.1659 51.2384 43.1659 51.9007V57.9416C43.166 58.6039 42.6271 59.1428 41.9647 59.1428ZM37.816 57.7348H41.7581V52.1073H37.816V57.7348Z" fill="white"/>
<path d="M62.4368 53.1914V66.4564H62.0083L54.5015 58.9497C54.1701 58.7354 53.9501 58.3636 53.9501 57.9419V51.9001C53.9501 51.2382 54.489 50.6993 55.1518 50.6993H59.5066C59.9293 50.6993 60.3011 50.9193 60.5154 51.2497L60.5327 51.2633L60.5211 51.2758L62.4368 53.1914Z" fill="url(#paint12_linear_4303_3)"/>
<path d="M59.507 58.4388H55.1516C54.8769 58.4388 54.6543 58.2162 54.6543 57.9415V51.9006C54.6543 51.6259 54.8769 51.4033 55.1516 51.4033H59.507C59.7817 51.4033 60.0043 51.626 60.0043 51.9006V57.9415C60.0044 58.2162 59.7817 58.4388 59.507 58.4388Z" fill="#503837"/>
<path d="M59.507 59.1428H55.1516C54.4893 59.1428 53.9504 58.6039 53.9504 57.9416V51.9007C53.9504 51.2384 54.4893 50.6995 55.1516 50.6995H59.507C60.1694 50.6995 60.7083 51.2384 60.7083 51.9007V57.9416C60.7083 58.6039 60.1694 59.1428 59.507 59.1428ZM55.3582 57.7348H59.3002V52.1073H55.3582V57.7348Z" fill="white"/>
<path d="M45.5651 66.4561V51.2019C45.5651 50.529 46.1105 49.9836 46.7833 49.9836H50.1662C50.839 49.9836 51.3845 50.529 51.3845 51.2019V66.4561H45.5651Z" fill="#816965"/>
<path d="M52.1049 66.4561H50.6638V51.6173C50.6638 51.1152 50.253 50.7042 49.7508 50.7042H47.1986C46.6943 50.7042 46.2855 51.113 46.2855 51.6173V66.4561H44.8445V50.6643C44.8445 49.8905 45.4718 49.2632 46.2457 49.2632H50.7037C51.4775 49.2632 52.1048 49.8905 52.1048 50.6643V66.4561H52.1049Z" fill="#503837"/>
<path d="M47.4425 56.3664C47.8054 56.3664 48.0995 56.0723 48.0995 55.7095C48.0995 55.3466 47.8054 55.0525 47.4425 55.0525C47.0797 55.0525 46.7856 55.3466 46.7856 55.7095C46.7856 56.0723 47.0797 56.3664 47.4425 56.3664Z" fill="white"/>
<path d="M62.4368 62.6117H34.5124V66.4559H62.4368V62.6117Z" fill="#654E48"/>
<path d="M34.2066 64.9539C34.2066 65.4844 34.1063 65.9907 33.923 66.456H26.2836C26.1003 65.9907 26 65.4844 26 64.9539C26 64.4373 26.0952 63.9434 26.2697 63.4884C26.8595 61.9453 28.3536 60.8506 30.1034 60.8506C31.8532 60.8506 33.3472 61.9453 33.9371 63.4884C34.1114 63.9435 34.2066 64.4374 34.2066 64.9539Z" fill="url(#paint13_linear_4303_3)"/>
<path d="M36.8526 65.3665C36.8526 65.7513 36.7798 66.1185 36.6469 66.4561H31.1052C30.9722 66.1186 30.8995 65.7513 30.8995 65.3665C30.8995 64.9917 30.9686 64.6335 31.0951 64.3034C31.523 63.184 32.6068 62.3899 33.8761 62.3899C35.1455 62.3899 36.2293 63.184 36.6572 64.3034C36.7835 64.6334 36.8526 64.9917 36.8526 65.3665Z" fill="url(#paint14_linear_4303_3)"/>
<path d="M70.9455 64.7051C70.9455 65.3235 70.8285 65.9137 70.6149 66.4561H61.7097C61.4962 65.9138 61.3791 65.3235 61.3791 64.7051C61.3791 64.1029 61.4902 63.5273 61.6935 62.9968C62.3811 61.198 64.1226 59.9219 66.1623 59.9219C68.202 59.9219 69.9435 61.198 70.6311 62.9968C70.8344 63.5273 70.9455 64.1029 70.9455 64.7051Z" fill="url(#paint15_linear_4303_3)"/>
<path d="M62.4358 42.3937V57.2759L44.4744 39.3136C44.1218 39.1013 43.8848 38.7161 43.8848 38.2755V34.901C43.8848 32.3717 45.9435 30.314 48.4728 30.314C49.8423 30.314 51.0734 30.9185 51.915 31.8729L62.4358 42.3937Z" fill="url(#paint16_linear_4303_3)"/>
<path d="M60.3894 40.9458H36.9179C36.3582 40.9458 35.9029 41.4011 35.9029 41.9608V46.467H36.6079V41.9608C36.6079 41.7898 36.747 41.6508 36.9179 41.6508H38.3219V46.4669H39.0269V41.6508H41.1213V46.4669H41.8263V41.6508H43.9208V46.4669H44.6258V41.6508H46.7202V46.4669H47.4252V41.6508H49.5197V46.4669H50.2247V41.6508H52.3192V46.4669H53.0242V41.6508H55.1186V46.4669H55.8236V41.6508H57.9181V46.4669H58.6231V41.6508H60.3891C60.56 41.6508 60.6991 41.7898 60.6991 41.9608V46.467H61.4041V41.9608C61.4044 41.4011 60.9491 40.9458 60.3894 40.9458Z" fill="#654E48"/>
<path d="M63.0145 45.7355V47.9959C63.0145 48.3318 62.7422 48.6042 62.4063 48.6042H34.5392C34.2032 48.6042 33.9309 48.3318 33.9309 47.9959V45.7355C33.9309 45.3995 34.2032 45.1272 34.5392 45.1272H62.4063C62.7422 45.1272 63.0145 45.3995 63.0145 45.7355Z" fill="url(#paint17_linear_4303_3)"/>
<path d="M67.435 40.8248L49.4056 22.7893C48.8917 22.2755 48.0584 22.2755 47.5445 22.7893L29.5105 40.8233C29.1743 41.1595 29.1743 41.7046 29.5105 42.0408L30.279 42.8093C30.6153 43.1455 31.1603 43.1455 31.4965 42.8093L48.2299 26.0759C48.3652 25.9406 48.5846 25.9406 48.7199 26.0759L65.4489 42.8107C65.7851 43.1469 66.3302 43.1469 66.6664 42.8107L67.4349 42.0422C67.7712 41.7061 67.7712 41.161 67.435 40.8248Z" fill="url(#paint18_linear_4303_3)"/>
<path d="M49.4055 22.7893C49.1486 22.5324 48.8119 22.4039 48.475 22.4039V25.9746C48.5637 25.9746 48.6524 26.0084 48.72 26.076L65.449 42.8109C65.7852 43.1471 66.3303 43.1471 66.6665 42.8109L67.435 42.0423C67.7712 41.7061 67.7712 41.161 67.435 40.8248L49.4055 22.7893Z" fill="url(#paint19_linear_4303_3)"/>
<path d="M51.8466 38.7568H45.099C44.833 38.7568 44.6174 38.5411 44.6174 38.2752V34.9013C44.6174 32.772 46.3436 31.0458 48.4729 31.0458C50.6023 31.0458 52.3285 32.772 52.3285 34.9013V38.2752C52.3283 38.5411 52.1126 38.7568 51.8466 38.7568Z" fill="#654E48"/>
<path d="M48.4728 30.3137C45.9432 30.3137 43.8853 32.3717 43.8853 34.9012V38.275C43.8853 38.9443 44.4297 39.4887 45.099 39.4887H51.8466C52.5159 39.4887 53.0604 38.9443 53.0604 38.275V34.9012C53.0603 32.3716 51.0024 30.3137 48.4728 30.3137ZM51.5709 34.5109H49.2049V31.8653C50.4516 32.1661 51.4087 33.2163 51.5709 34.5109ZM47.7406 31.8653V34.5109H45.3746C45.5368 33.2163 46.4938 32.1661 47.7406 31.8653ZM45.3493 35.975H47.7406V38.0248H45.3493V35.975ZM49.2049 38.0248V35.975H51.5962V38.0248H49.2049Z" fill="white"/>
<g opacity="0.1" filter="url(#filter0_d_4303_3)">
<circle cx="48" cy="44" r="44" fill="#8FA632"/>
</g>
<defs>
<filter id="filter0_d_4303_3" x="0" y="0" width="96" height="96" filterUnits="userSpaceOnUse" color-interpolation-filters="sRGB">
<feFlood flood-opacity="0" result="BackgroundImageFix"/>
<feColorMatrix in="SourceAlpha" type="matrix" values="0 0 0 0 0 0 0 0 0 0 0 0 0 0 0 0 0 0 127 0" result="hardAlpha"/>
<feOffset dy="4"/>
<feGaussianBlur stdDeviation="2"/>
<feComposite in2="hardAlpha" operator="out"/>
<feColorMatrix type="matrix" values="0 0 0 0 0 0 0 0 0 0 0 0 0 0 0 0 0 0 0.25 0"/>
<feBlend mode="normal" in2="BackgroundImageFix" result="effect1_dropShadow_4303_3"/>
<feBlend mode="normal" in="SourceGraphic" in2="effect1_dropShadow_4303_3" result="shape"/>
</filter>
<linearGradient id="paint0_linear_4303_3" x1="28.2445" y1="24.8202" x2="45.5359" y2="30.8359" gradientUnits="userSpaceOnUse">
<stop stop-color="#E2EDF2"/>
<stop offset="1" stop-color="#9FC7E2"/>
</linearGradient>
<linearGradient id="paint1_linear_4303_3" x1="29.9081" y1="23.3036" x2="32.454" y2="24.1896" gradientUnits="userSpaceOnUse">
<stop stop-color="#E2EDF2"/>
<stop offset="1" stop-color="#9FC7E2"/>
</linearGradient>
<linearGradient id="paint2_linear_4303_3" x1="35.9019" y1="31.6132" x2="37.6786" y2="33.389" gradientUnits="userSpaceOnUse">
<stop stop-color="#816965"/>
<stop offset="1" stop-color="#654E48"/>
</linearGradient>
<linearGradient id="paint3_linear_4303_3" x1="32.6976" y1="54.6047" x2="32.6976" y2="66.6569" gradientUnits="userSpaceOnUse">
<stop stop-color="#FFE7A5"/>
<stop offset="0.966" stop-color="#FFBF5C"/>
</linearGradient>
<linearGradient id="paint4_linear_4303_3" x1="32.5941" y1="51.4831" x2="32.5941" y2="55.8665" gradientUnits="userSpaceOnUse">
<stop stop-color="#FF5D00"/>
<stop offset="1" stop-color="#D54003"/>
</linearGradient>
<linearGradient id="paint5_linear_4303_3" x1="64.2469" y1="54.6047" x2="64.2469" y2="66.6569" gradientUnits="userSpaceOnUse">
<stop stop-color="#FFE7A5"/>
<stop offset="0.966" stop-color="#FFBF5C"/>
</linearGradient>
<linearGradient id="paint6_linear_4303_3" x1="64.0001" y1="64.0721" x2="53.0381" y2="54.3033" gradientUnits="userSpaceOnUse">
<stop stop-color="#FF5D00" stop-opacity="0"/>
<stop offset="1" stop-color="#D54003"/>
</linearGradient>
<linearGradient id="paint7_linear_4303_3" x1="64.3505" y1="51.4831" x2="64.3505" y2="55.8665" gradientUnits="userSpaceOnUse">
<stop stop-color="#FF5D00"/>
<stop offset="1" stop-color="#D54003"/>
</linearGradient>
<linearGradient id="paint8_linear_4303_3" x1="48.474" y1="45.8633" x2="48.474" y2="75.4288" gradientUnits="userSpaceOnUse">
<stop stop-color="#FFE7A5"/>
<stop offset="0.966" stop-color="#FFBF5C"/>
<stop offset="1" stop-color="#DB9E36"/>
</linearGradient>
<linearGradient id="paint9_linear_4303_3" x1="45.4565" y1="36.1642" x2="37.3735" y2="28.0812" gradientUnits="userSpaceOnUse">
<stop stop-color="#FF5D00" stop-opacity="0"/>
<stop offset="1" stop-color="#D54003"/>
</linearGradient>
<linearGradient id="paint10_linear_4303_3" x1="49.5251" y1="53.6309" x2="46.3623" y2="33.9989" gradientUnits="userSpaceOnUse">
<stop stop-color="#FF5D00" stop-opacity="0"/>
<stop offset="1" stop-color="#D54003"/>
</linearGradient>
<linearGradient id="paint11_linear_4303_3" x1="45.2266" y1="60.361" x2="32.6298" y2="47.7641" gradientUnits="userSpaceOnUse">
<stop stop-color="#FF5D00" stop-opacity="0"/>
<stop offset="1" stop-color="#D54003"/>
</linearGradient>
<linearGradient id="paint12_linear_4303_3" x1="60.6992" y1="58.2916" x2="52.6338" y2="50.2262" gradientUnits="userSpaceOnUse">
<stop stop-color="#FF5D00" stop-opacity="0"/>
<stop offset="1" stop-color="#D54003"/>
</linearGradient>
<linearGradient id="paint13_linear_4303_3" x1="27.7892" y1="62.3995" x2="32.8526" y2="67.4623" gradientUnits="userSpaceOnUse">
<stop stop-color="#9EB644"/>
<stop offset="1" stop-color="#738611"/>
</linearGradient>
<linearGradient id="paint14_linear_4303_3" x1="32.1972" y1="63.5131" x2="35.8703" y2="67.1863" gradientUnits="userSpaceOnUse">
<stop stop-color="#9EB644"/>
<stop offset="1" stop-color="#738611"/>
</linearGradient>
<linearGradient id="paint15_linear_4303_3" x1="63.4642" y1="61.7271" x2="69.3661" y2="67.6298" gradientUnits="userSpaceOnUse">
<stop stop-color="#9EB644"/>
<stop offset="1" stop-color="#738611"/>
</linearGradient>
<linearGradient id="paint16_linear_4303_3" x1="54.8878" y1="42.3066" x2="41.9746" y2="29.3934" gradientUnits="userSpaceOnUse">
<stop stop-color="#FF5D00" stop-opacity="0"/>
<stop offset="1" stop-color="#D54003"/>
</linearGradient>
<linearGradient id="paint17_linear_4303_3" x1="48.4723" y1="45.4976" x2="48.4723" y2="50.1102" gradientUnits="userSpaceOnUse">
<stop stop-color="#FF5D00"/>
<stop offset="1" stop-color="#D54003"/>
</linearGradient>
<linearGradient id="paint18_linear_4303_3" x1="48.4723" y1="34.6034" x2="48.4723" y2="50.2626" gradientUnits="userSpaceOnUse">
<stop stop-color="#FF5D00"/>
<stop offset="1" stop-color="#D54003"/>
</linearGradient>
<linearGradient id="paint19_linear_4303_3" x1="61.9408" y1="37.3836" x2="52.476" y2="27.919" gradientUnits="userSpaceOnUse">
<stop stop-color="#FF5D00" stop-opacity="0"/>
<stop offset="1" stop-color="#D54003"/>
</linearGradient>
</defs>
</svg>
